<mxfile host="app.diagrams.net" modified="2024-01-18T11:03:00.567Z" agent="Mozilla/5.0 (X11; Linux x86_64) AppleWebKit/537.36 (KHTML, like Gecko) Chrome/120.0.0.0 Safari/537.36" etag="znpuPNMtGJoLWLu1F9h4" version="22.1.21" type="device">
  <diagram name="Page-1" id="G36I1ciaqv593En-_ECq">
    <mxGraphModel dx="1675" dy="998" grid="1" gridSize="10" guides="1" tooltips="1" connect="1" arrows="1" fold="1" page="1" pageScale="1" pageWidth="850" pageHeight="1100" math="0" shadow="0">
      <root>
        <mxCell id="0" />
        <mxCell id="1" parent="0" />
        <mxCell id="yfl_Qjb9PqZjb0idvXw_-15" value="" style="rounded=0;whiteSpace=wrap;html=1;fillColor=none;strokeColor=default;dashed=1;" vertex="1" parent="1">
          <mxGeometry x="10" y="50" width="400" height="305" as="geometry" />
        </mxCell>
        <mxCell id="yfl_Qjb9PqZjb0idvXw_-1" value="&lt;pre&gt;&lt;font color=&quot;#d93d0d&quot;&gt;@external&lt;br&gt;@nonreentrant&lt;/font&gt;(&lt;font color=&quot;#1e8533&quot;&gt;&#39;A&#39;&lt;/font&gt;)&lt;br&gt;&lt;font color=&quot;#6f00ff&quot;&gt;def&lt;/font&gt; withdraw():&lt;br&gt;   ...&lt;/pre&gt;&lt;pre&gt;&lt;pre style=&quot;border-color: var(--border-color);&quot;&gt;&lt;font style=&quot;border-color: var(--border-color);&quot; color=&quot;#d93d0d&quot;&gt;@external&lt;br style=&quot;border-color: var(--border-color);&quot;&gt;@nonreentrant&lt;/font&gt;(&lt;font style=&quot;border-color: var(--border-color);&quot; color=&quot;#1e8533&quot;&gt;&#39;A&#39;&lt;/font&gt;)&lt;br/&gt;&lt;font color=&quot;#6f00ff&quot;&gt;def&lt;/font&gt; withdrawAll():&lt;br/&gt;   ...&lt;/pre&gt;&lt;/pre&gt;&lt;pre&gt;&lt;pre style=&quot;border-color: var(--border-color);&quot;&gt;&lt;font style=&quot;border-color: var(--border-color);&quot; color=&quot;#d93d0d&quot;&gt;@external&lt;br style=&quot;border-color: var(--border-color);&quot;&gt;@nonreentrant&lt;/font&gt;(&lt;font style=&quot;border-color: var(--border-color);&quot; color=&quot;#1e8533&quot;&gt;&#39;B&#39;&lt;/font&gt;)&lt;br/&gt;&lt;font color=&quot;#6f00ff&quot;&gt;def&lt;/font&gt; deposit():&lt;br/&gt;   ...&lt;/pre&gt;&lt;/pre&gt;" style="rounded=0;whiteSpace=wrap;html=1;align=left;perimeterSpacing=0;" vertex="1" parent="1">
          <mxGeometry x="30" y="95" width="160" height="220" as="geometry" />
        </mxCell>
        <mxCell id="yfl_Qjb9PqZjb0idvXw_-2" value="Slot 0" style="rounded=0;whiteSpace=wrap;html=1;" vertex="1" parent="1">
          <mxGeometry x="220" y="95" width="160" height="40" as="geometry" />
        </mxCell>
        <mxCell id="yfl_Qjb9PqZjb0idvXw_-3" value="Code" style="text;html=1;strokeColor=none;fillColor=none;align=center;verticalAlign=middle;whiteSpace=wrap;rounded=0;" vertex="1" parent="1">
          <mxGeometry x="20" y="65" width="60" height="30" as="geometry" />
        </mxCell>
        <mxCell id="yfl_Qjb9PqZjb0idvXw_-5" value="Storage" style="text;html=1;strokeColor=none;fillColor=none;align=center;verticalAlign=middle;whiteSpace=wrap;rounded=0;" vertex="1" parent="1">
          <mxGeometry x="210" y="65" width="60" height="30" as="geometry" />
        </mxCell>
        <mxCell id="yfl_Qjb9PqZjb0idvXw_-6" value="Slot 1" style="rounded=0;whiteSpace=wrap;html=1;" vertex="1" parent="1">
          <mxGeometry x="220" y="135" width="160" height="40" as="geometry" />
        </mxCell>
        <mxCell id="yfl_Qjb9PqZjb0idvXw_-7" value="Slot 2" style="rounded=0;whiteSpace=wrap;html=1;" vertex="1" parent="1">
          <mxGeometry x="220" y="175" width="160" height="40" as="geometry" />
        </mxCell>
        <mxCell id="yfl_Qjb9PqZjb0idvXw_-8" value="Slot 3" style="rounded=0;whiteSpace=wrap;html=1;" vertex="1" parent="1">
          <mxGeometry x="220" y="215" width="160" height="40" as="geometry" />
        </mxCell>
        <mxCell id="yfl_Qjb9PqZjb0idvXw_-9" value="Slot 4" style="rounded=0;whiteSpace=wrap;html=1;" vertex="1" parent="1">
          <mxGeometry x="220" y="255" width="160" height="40" as="geometry" />
        </mxCell>
        <mxCell id="yfl_Qjb9PqZjb0idvXw_-10" value="..." style="text;html=1;strokeColor=none;fillColor=none;align=center;verticalAlign=middle;whiteSpace=wrap;rounded=0;" vertex="1" parent="1">
          <mxGeometry x="270" y="295" width="60" height="30" as="geometry" />
        </mxCell>
        <mxCell id="yfl_Qjb9PqZjb0idvXw_-12" value="" style="endArrow=classic;html=1;rounded=0;" edge="1" parent="1">
          <mxGeometry width="50" height="50" relative="1" as="geometry">
            <mxPoint x="170" y="125" as="sourcePoint" />
            <mxPoint x="260" y="115" as="targetPoint" />
          </mxGeometry>
        </mxCell>
        <mxCell id="yfl_Qjb9PqZjb0idvXw_-13" value="" style="endArrow=classic;html=1;rounded=0;" edge="1" parent="1">
          <mxGeometry width="50" height="50" relative="1" as="geometry">
            <mxPoint x="165" y="195" as="sourcePoint" />
            <mxPoint x="270" y="115" as="targetPoint" />
          </mxGeometry>
        </mxCell>
        <mxCell id="yfl_Qjb9PqZjb0idvXw_-14" value="" style="endArrow=classic;html=1;rounded=0;" edge="1" parent="1">
          <mxGeometry width="50" height="50" relative="1" as="geometry">
            <mxPoint x="160" y="265" as="sourcePoint" />
            <mxPoint x="280" y="165" as="targetPoint" />
          </mxGeometry>
        </mxCell>
        <mxCell id="yfl_Qjb9PqZjb0idvXw_-16" value="The Intention" style="text;html=1;strokeColor=none;fillColor=none;align=center;verticalAlign=middle;whiteSpace=wrap;rounded=0;" vertex="1" parent="1">
          <mxGeometry x="5" y="20" width="90" height="30" as="geometry" />
        </mxCell>
        <mxCell id="yfl_Qjb9PqZjb0idvXw_-18" value="" style="rounded=0;whiteSpace=wrap;html=1;fillColor=none;strokeColor=default;dashed=1;" vertex="1" parent="1">
          <mxGeometry x="425" y="50" width="400" height="305" as="geometry" />
        </mxCell>
        <mxCell id="yfl_Qjb9PqZjb0idvXw_-19" value="&lt;pre&gt;&lt;font color=&quot;#d93d0d&quot;&gt;@external&lt;br&gt;@nonreentrant&lt;/font&gt;(&lt;font color=&quot;#1e8533&quot;&gt;&#39;A&#39;&lt;/font&gt;)&lt;br&gt;&lt;font color=&quot;#6f00ff&quot;&gt;def&lt;/font&gt; withdraw():&lt;br&gt;   ...&lt;/pre&gt;&lt;pre&gt;&lt;pre style=&quot;border-color: var(--border-color);&quot;&gt;&lt;font style=&quot;border-color: var(--border-color);&quot; color=&quot;#d93d0d&quot;&gt;@external&lt;br style=&quot;border-color: var(--border-color);&quot;&gt;@nonreentrant&lt;/font&gt;(&lt;font style=&quot;border-color: var(--border-color);&quot; color=&quot;#1e8533&quot;&gt;&#39;A&#39;&lt;/font&gt;)&lt;br/&gt;&lt;font color=&quot;#6f00ff&quot;&gt;def&lt;/font&gt; withdrawAll():&lt;br/&gt;   ...&lt;/pre&gt;&lt;/pre&gt;&lt;pre&gt;&lt;pre style=&quot;border-color: var(--border-color);&quot;&gt;&lt;font style=&quot;border-color: var(--border-color);&quot; color=&quot;#d93d0d&quot;&gt;@external&lt;br style=&quot;border-color: var(--border-color);&quot;&gt;@nonreentrant&lt;/font&gt;(&lt;font style=&quot;border-color: var(--border-color);&quot; color=&quot;#1e8533&quot;&gt;&#39;B&#39;&lt;/font&gt;)&lt;br/&gt;&lt;font color=&quot;#6f00ff&quot;&gt;def&lt;/font&gt; deposit():&lt;br/&gt;   ...&lt;/pre&gt;&lt;/pre&gt;" style="rounded=0;whiteSpace=wrap;html=1;align=left;perimeterSpacing=0;" vertex="1" parent="1">
          <mxGeometry x="445" y="95" width="160" height="220" as="geometry" />
        </mxCell>
        <mxCell id="yfl_Qjb9PqZjb0idvXw_-20" value="Slot 0" style="rounded=0;whiteSpace=wrap;html=1;" vertex="1" parent="1">
          <mxGeometry x="635" y="95" width="160" height="40" as="geometry" />
        </mxCell>
        <mxCell id="yfl_Qjb9PqZjb0idvXw_-21" value="Code" style="text;html=1;strokeColor=none;fillColor=none;align=center;verticalAlign=middle;whiteSpace=wrap;rounded=0;" vertex="1" parent="1">
          <mxGeometry x="435" y="65" width="60" height="30" as="geometry" />
        </mxCell>
        <mxCell id="yfl_Qjb9PqZjb0idvXw_-22" value="Storage" style="text;html=1;strokeColor=none;fillColor=none;align=center;verticalAlign=middle;whiteSpace=wrap;rounded=0;" vertex="1" parent="1">
          <mxGeometry x="625" y="65" width="60" height="30" as="geometry" />
        </mxCell>
        <mxCell id="yfl_Qjb9PqZjb0idvXw_-23" value="Slot 1" style="rounded=0;whiteSpace=wrap;html=1;" vertex="1" parent="1">
          <mxGeometry x="635" y="135" width="160" height="40" as="geometry" />
        </mxCell>
        <mxCell id="yfl_Qjb9PqZjb0idvXw_-24" value="Slot 2" style="rounded=0;whiteSpace=wrap;html=1;" vertex="1" parent="1">
          <mxGeometry x="635" y="175" width="160" height="40" as="geometry" />
        </mxCell>
        <mxCell id="yfl_Qjb9PqZjb0idvXw_-25" value="Slot 3" style="rounded=0;whiteSpace=wrap;html=1;" vertex="1" parent="1">
          <mxGeometry x="635" y="215" width="160" height="40" as="geometry" />
        </mxCell>
        <mxCell id="yfl_Qjb9PqZjb0idvXw_-26" value="Slot 4" style="rounded=0;whiteSpace=wrap;html=1;" vertex="1" parent="1">
          <mxGeometry x="635" y="255" width="160" height="40" as="geometry" />
        </mxCell>
        <mxCell id="yfl_Qjb9PqZjb0idvXw_-27" value="..." style="text;html=1;strokeColor=none;fillColor=none;align=center;verticalAlign=middle;whiteSpace=wrap;rounded=0;" vertex="1" parent="1">
          <mxGeometry x="685" y="295" width="60" height="30" as="geometry" />
        </mxCell>
        <mxCell id="yfl_Qjb9PqZjb0idvXw_-28" value="" style="endArrow=classic;html=1;rounded=0;" edge="1" parent="1">
          <mxGeometry width="50" height="50" relative="1" as="geometry">
            <mxPoint x="585" y="125" as="sourcePoint" />
            <mxPoint x="675" y="115" as="targetPoint" />
          </mxGeometry>
        </mxCell>
        <mxCell id="yfl_Qjb9PqZjb0idvXw_-29" value="" style="endArrow=classic;html=1;rounded=0;" edge="1" parent="1">
          <mxGeometry width="50" height="50" relative="1" as="geometry">
            <mxPoint x="575" y="200" as="sourcePoint" />
            <mxPoint x="685" y="160" as="targetPoint" />
          </mxGeometry>
        </mxCell>
        <mxCell id="yfl_Qjb9PqZjb0idvXw_-30" value="" style="endArrow=classic;html=1;rounded=0;" edge="1" parent="1">
          <mxGeometry width="50" height="50" relative="1" as="geometry">
            <mxPoint x="580" y="270" as="sourcePoint" />
            <mxPoint x="700" y="200" as="targetPoint" />
          </mxGeometry>
        </mxCell>
        <mxCell id="yfl_Qjb9PqZjb0idvXw_-31" value="The Bug" style="text;html=1;strokeColor=none;fillColor=none;align=center;verticalAlign=middle;whiteSpace=wrap;rounded=0;" vertex="1" parent="1">
          <mxGeometry x="410" y="20" width="90" height="30" as="geometry" />
        </mxCell>
      </root>
    </mxGraphModel>
  </diagram>
</mxfile>
